<svg id="visual" viewBox="0 0 1500 150" width="1500" height="150" xmlns="http://www.w3.org/2000/svg" xmlns:xlink="http://www.w3.org/1999/xlink" version="1.1"><rect x="0" y="0" width="1500" height="150" fill="#337AB7"></rect><path d="M0 124L22.7 127.7C45.3 131.3 90.7 138.7 136.2 139C181.7 139.3 227.3 132.7 272.8 130.5C318.3 128.3 363.7 130.7 409 133.2C454.3 135.7 499.7 138.3 545.2 137.8C590.7 137.3 636.3 133.7 681.8 130.5C727.3 127.3 772.7 124.7 818.2 124.7C863.7 124.7 909.3 127.3 954.8 129.2C1000.3 131 1045.7 132 1091 132.8C1136.3 133.7 1181.7 134.3 1227.2 135.2C1272.7 136 1318.3 137 1363.8 135.8C1409.3 134.7 1454.7 131.3 1477.3 129.7L1500 128L1500 151L1477.3 151C1454.7 151 1409.3 151 1363.8 151C1318.3 151 1272.7 151 1227.2 151C1181.7 151 1136.3 151 1091 151C1045.7 151 1000.3 151 954.8 151C909.3 151 863.7 151 818.2 151C772.7 151 727.3 151 681.8 151C636.3 151 590.7 151 545.2 151C499.7 151 454.3 151 409 151C363.7 151 318.3 151 272.8 151C227.3 151 181.7 151 136.2 151C90.7 151 45.3 151 22.7 151L0 151Z" fill="#FFFFFF" stroke-linecap="round" stroke-linejoin="miter"></path></svg>