<svg id="visual" viewBox="0 0 2500 150" width="2500" height="150" xmlns="http://www.w3.org/2000/svg" xmlns:xlink="http://www.w3.org/1999/xlink" version="1.1"><rect x="0" y="0" width="2500" height="150" fill="#337AB7"></rect><path d="M0 119L19.8 116C39.7 113 79.3 107 119 110.7C158.7 114.3 198.3 127.7 238 128.5C277.7 129.3 317.3 117.7 357 116.5C396.7 115.3 436.3 124.7 476 127C515.7 129.3 555.3 124.7 595 117.3C634.7 110 674.3 100 714 103.2C753.7 106.3 793.3 122.7 833 129.5C872.7 136.3 912.3 133.7 952 129.5C991.7 125.3 1031.3 119.7 1071 115.8C1110.7 112 1150.3 110 1190.2 105C1230 100 1270 92 1309.8 95.8C1349.7 99.7 1389.3 115.3 1429 116.2C1468.7 117 1508.3 103 1548 98.7C1587.7 94.3 1627.3 99.7 1667 103.5C1706.7 107.3 1746.3 109.7 1786 115C1825.7 120.3 1865.3 128.7 1905 128.5C1944.7 128.3 1984.3 119.7 2024 120.3C2063.7 121 2103.3 131 2143 126.3C2182.7 121.7 2222.3 102.3 2262 94.2C2301.7 86 2341.3 89 2381 92.3C2420.7 95.7 2460.3 99.3 2480.2 101.2L2500 103L2500 151L2480.2 151C2460.3 151 2420.7 151 2381 151C2341.3 151 2301.7 151 2262 151C2222.3 151 2182.7 151 2143 151C2103.3 151 2063.7 151 2024 151C1984.3 151 1944.7 151 1905 151C1865.3 151 1825.7 151 1786 151C1746.3 151 1706.7 151 1667 151C1627.3 151 1587.7 151 1548 151C1508.3 151 1468.7 151 1429 151C1389.3 151 1349.7 151 1309.8 151C1270 151 1230 151 1190.2 151C1150.3 151 1110.7 151 1071 151C1031.3 151 991.7 151 952 151C912.3 151 872.7 151 833 151C793.3 151 753.7 151 714 151C674.3 151 634.7 151 595 151C555.3 151 515.7 151 476 151C436.3 151 396.7 151 357 151C317.3 151 277.7 151 238 151C198.3 151 158.7 151 119 151C79.3 151 39.7 151 19.8 151L0 151Z" fill="#FFFFFF" stroke-linecap="round" stroke-linejoin="miter"></path></svg>